<?xml version="1.0" encoding="UTF-8"?>
<svg width="24px" height="24px" viewBox="0 0 24 24" version="1.1" xmlns="http://www.w3.org/2000/svg" xmlns:xlink="http://www.w3.org/1999/xlink">
    <title>Artboard</title>
    <defs>
        <linearGradient x1="-8.51376506%" y1="49.9849233%" x2="99.9902028%" y2="49.9849233%" id="linearGradient-1">
            <stop stop-color="#E35930" offset="0%"></stop>
            <stop stop-color="#E84125" offset="100%"></stop>
        </linearGradient>
        <linearGradient x1="-6.82728609%" y1="49.9907069%" x2="100%" y2="49.9907069%" id="linearGradient-2">
            <stop stop-color="#E35930" offset="0%"></stop>
            <stop stop-color="#E84125" offset="100%"></stop>
        </linearGradient>
        <linearGradient x1="-3.18784322%" y1="49.9951329%" x2="99.9897965%" y2="49.9951329%" id="linearGradient-3">
            <stop stop-color="#E35930" offset="0%"></stop>
            <stop stop-color="#E84125" offset="100%"></stop>
        </linearGradient>
        <linearGradient x1="-1.90164605%" y1="50.0076729%" x2="100%" y2="50.0076729%" id="linearGradient-4">
            <stop stop-color="#E35930" offset="0%"></stop>
            <stop stop-color="#E84125" offset="100%"></stop>
        </linearGradient>
        <linearGradient x1="-3.46275996%" y1="49.9945593%" x2="100%" y2="49.9945593%" id="linearGradient-5">
            <stop stop-color="#E35930" offset="0%"></stop>
            <stop stop-color="#E84125" offset="100%"></stop>
        </linearGradient>
        <linearGradient x1="-6.34357402%" y1="49.9951262%" x2="99.9907136%" y2="49.9951262%" id="linearGradient-6">
            <stop stop-color="#E35930" offset="0%"></stop>
            <stop stop-color="#E84125" offset="100%"></stop>
        </linearGradient>
        <linearGradient x1="-8.4559912%" y1="49.9749978%" x2="100.006596%" y2="49.9749978%" id="linearGradient-7">
            <stop stop-color="#E35930" offset="0%"></stop>
            <stop stop-color="#E84125" offset="100%"></stop>
        </linearGradient>
        <linearGradient x1="72.0193729%" y1="40.0263308%" x2="34.3839292%" y2="72.470111%" id="linearGradient-8">
            <stop stop-color="#E35930" offset="0%"></stop>
            <stop stop-color="#E84125" offset="100%"></stop>
        </linearGradient>
        <linearGradient x1="35.3745859%" y1="4.30535297%" x2="69.2778831%" y2="82.6242029%" id="linearGradient-9">
            <stop stop-color="#E35930" offset="0%"></stop>
            <stop stop-color="#E84125" offset="100%"></stop>
        </linearGradient>
        <linearGradient x1="37.974417%" y1="37.5375407%" x2="67.3001319%" y2="59.8209541%" id="linearGradient-10">
            <stop stop-color="#E35930" offset="0%"></stop>
            <stop stop-color="#E84125" offset="100%"></stop>
        </linearGradient>
        <linearGradient x1="11.1047339%" y1="63.1820515%" x2="76.3996196%" y2="30.1542632%" id="linearGradient-11">
            <stop stop-color="#E35930" offset="0%"></stop>
            <stop stop-color="#E84125" offset="100%"></stop>
        </linearGradient>
        <linearGradient x1="48.0320957%" y1="78.4879318%" x2="53.9573542%" y2="19.8096495%" id="linearGradient-12">
            <stop stop-color="#E35930" offset="0%"></stop>
            <stop stop-color="#E84125" offset="100%"></stop>
        </linearGradient>
        <linearGradient x1="58.5584037%" y1="81.1594204%" x2="36.0245704%" y2="29.636948%" id="linearGradient-13">
            <stop stop-color="#E35930" offset="0%"></stop>
            <stop stop-color="#E84125" offset="100%"></stop>
        </linearGradient>
        <linearGradient x1="100.314143%" y1="43.0813203%" x2="8.95818823%" y2="55.5861817%" id="linearGradient-14">
            <stop stop-color="#E35930" offset="0%"></stop>
            <stop stop-color="#E84125" offset="100%"></stop>
        </linearGradient>
    </defs>
    <g id="Artboard" stroke="none" stroke-width="1" fill="none" fill-rule="evenodd">
        <g id="logo" transform="translate(1, 1)" fill-rule="nonzero">
            <path d="M14,5 C13.0507135,4.5925819 12.0303173,4.3835083 10.9997061,4.38525622 C9.93514255,4.38525622 8.92172039,4.60369915 8,5 L10.755168,0.141733599 C10.8053464,0.053994864 10.8977219,0 10.9976487,0 C11.0975755,0 11.189951,0.053994864 11.2401293,0.141733599 L13.9970608,5 L13.9994122,5 L14,5 Z" id="Path" fill="url(#linearGradient-1)"></path>
            <path d="M7,4.73832029 C5.41122045,5.64868301 4.25052562,7.18751321 3.78553905,9 L2.01692579,4.341471 C1.98514866,4.25846459 1.99872388,4.16427318 2.05253532,4.09439493 C2.10634675,4.02451668 2.19221444,3.98957388 2.27777721,4.00273552 L7,4.73884384 L7,4.73832029 Z" id="Path" fill="url(#linearGradient-2)"></path>
            <path d="M4.99948983,16 L0.171710925,14.2898861 C0.0887817443,14.2603171 0.0257946909,14.1825766 0.00626377102,14.0856863 C-0.0132671489,13.988796 0.0135936059,13.8873188 0.0768185152,13.8191375 L3.66334347,10 C3.60362182,10.4168461 3.57359275,10.8385595 3.57355281,11.2609754 C3.57355281,13.0499367 4.10668489,14.6958045 5,16 L4.99948983,16 Z" id="Path" fill="url(#linearGradient-3)"></path>
            <path d="M11,18.6711274 L6.75861364,21.9511446 C6.68682674,22.0074715 6.59382177,22.0156973 6.51518051,21.9726752 C6.43653925,21.929653 6.38443265,21.8420411 6.37879562,21.7433581 L6,16 C7.2483409,17.6649933 9.07124477,18.6379909 11,18.6688123 L11,18.6711274 L11,18.6711274 Z" id="Path" fill="url(#linearGradient-4)"></path>
            <path d="M16,16 L15.6224772,21.7433626 C15.6118418,21.8955639 15.4953537,22.0097069 15.3612335,21.9993471 C15.3183708,21.9960704 15.2770264,21.9800167 15.2413687,21.9528045 L11,18.6610758 C12.9259724,18.6322893 14.7476936,17.6626423 15.9994878,16 L16,16 Z" id="Path" fill="url(#linearGradient-5)"></path>
            <path d="M21.82788,14.2957403 L17,16 C17.9194873,14.6508217 18.4174572,12.9895407 18.4147502,11.2802417 C18.4147502,10.8445268 18.3819563,10.4164149 18.3214925,10 L21.9216501,13.8220099 C22.0599995,13.9688079 22.0067094,14.2319914 21.82788,14.2939858 L21.82788,14.2957403 L21.82788,14.2957403 Z" id="Path" fill="url(#linearGradient-6)"></path>
            <path d="M19.9830312,4.34203036 L18.2124626,9 C17.7478035,7.1895001 16.5883241,5.65097497 15,4.7373504 L19.7215161,4.00273581 C19.8072966,3.98957279 19.8933827,4.02451924 19.947331,4.09440481 C20.0012794,4.16429038 20.0148891,4.25849166 19.9830312,4.34150676 L19.9830312,4.34203036 Z" id="Path" fill="url(#linearGradient-7)"></path>
            <path d="M10.9988591,20 C10.468025,20.0006035 9.95918116,20.2116746 9.58430627,20.5867638 C9.20943138,20.9618531 8.99924509,21.4702233 9,22 L13,22 C13.0007549,21.4702233 12.7905686,20.9618531 12.4156937,20.5867638 C12.0408188,20.2116746 11.531975,20.0006035 11.0011409,20 L10.9988591,20 L10.9988591,20 Z" id="Path" fill="url(#linearGradient-8)"></path>
            <path d="M18.4037351,16.6331865 C17.7669398,17.360534 17.8975596,18.4188918 18.6958412,19 L21,16.3672793 C20.6168993,16.0889482 20.1276433,15.9606061 19.6402376,16.0105853 C19.1528319,16.0605644 18.7073569,16.2847549 18.4021533,16.6336656 L18.4037351,16.6336656 L18.4037351,16.6331865 Z" id="Path" fill="url(#linearGradient-9)"></path>
            <path d="M20.0416861,9.42625608 C20.1371464,9.94935693 20.3973457,10.4039977 20.7647992,10.6897361 C21.1322526,10.9754745 21.5767176,11.0687933 22,10.949076 L21.2716398,7 C20.8480969,7.1199552 20.4805217,7.44284114 20.2498383,7.89757228 C20.0191549,8.35230343 19.9442758,8.9015989 20.0416861,9.42452757 L20.0416861,9.42625608 L20.0416861,9.42625608 Z" id="Path" fill="url(#linearGradient-10)"></path>
            <path d="M15.1913597,3.79278217 C15.694381,4.03363591 16.2734344,4.0658887 16.8004928,3.88240955 C17.3275513,3.69893039 17.759199,3.31483317 18,2.81504062 L14.2095359,1 C13.7041298,2.04058406 14.1443333,3.29044402 15.1931601,3.79278217 L15.1907596,3.79278217 L15.1913597,3.79278217 Z" id="Path" fill="url(#linearGradient-11)"></path>
            <path d="M6.80872255,3.79428898 C7.85640498,3.2907858 8.2955688,2.0406869 7.79036538,1 L4,2.8160199 C4.24132594,3.31569555 4.67314879,3.69950867 5.2001282,3.88271877 C5.72710762,4.06592887 6.30590227,4.03346789 6.80872255,3.79250273 L6.80872255,3.79428898 Z" id="Path" fill="url(#linearGradient-12)"></path>
            <path d="M1.95853069,9.42455304 C2.15986292,8.33500348 1.60865395,7.24993764 0.726867749,7 L0,10.9494799 C0.423454468,11.0687102 0.867911023,10.9749458 1.2353317,10.6888693 C1.60275239,10.4027927 1.86295013,9.94790793 1.95853069,9.42455304 L1.95853069,9.42455304 Z" id="Path" fill="url(#linearGradient-13)"></path>
            <path d="M2,16.3672715 L4.30436218,19 C5.10244091,18.4190275 5.23300935,17.3604504 4.59629373,16.6331795 C4.29111295,16.2844501 3.84588176,16.0604353 3.35881367,16.0105506 C2.87174558,15.960666 2.38285994,16.08901 2,16.3672715 L2,16.3672715 Z" id="Path" fill="url(#linearGradient-14)"></path>
        </g>
    </g>
</svg>